<svg width="74" height="74" viewBox="0 0 74 74" fill="none" xmlns="http://www.w3.org/2000/svg">
<g clip-path="url(#clip0)">
<path d="M37.1068 -8.51025e-06L27.0191 6.39545L37.9165 24.0886L48.0042 17.6931L37.1068 -8.51025e-06Z" fill="#231F21"/>
<path d="M13.1427 8.94801L9.46692 20.4276L29.0262 26.875L32.702 15.3955L13.1427 8.94801Z" fill="#231F21"/>
<path d="M19.5276 23.586L0.459534 31.4018L4.91579 42.5923L23.9838 34.7765L19.5276 23.586Z" fill="#231F21"/>
<path d="M14.6289 38.5043L4.9736 56.9262L15.4765 62.5929L25.1318 44.171L14.6289 38.5043Z" fill="#231F21"/>
<path d="M31.9514 50.5843L20.3158 53.0953L24.5913 73.5173L36.2269 71.0064L31.9514 50.5843Z" fill="#231F21"/>
<path d="M41.28 51.0862L33.9557 60.6042L50.161 73.4607L57.4854 63.9427L41.28 51.0862Z" fill="#231F21"/>
<path d="M69.2608 44.6207L48.7081 45.3489L49.1233 57.4113L69.676 56.6832L69.2608 44.6207Z" fill="#231F21"/>
<path d="M66.0403 22.2061L50.7583 36.167L58.718 45.1358L74 31.175L66.0403 22.2061Z" fill="#231F21"/>
<path d="M49.3544 7.07966L46.4917 27.7492L58.2725 29.4299L61.1352 8.7603L49.3544 7.07966Z" fill="#231F21"/>
</g>
<defs>
<clipPath id="clip0">
<rect width="74" height="74" fill="white"/>
</clipPath>
</defs>
</svg>
